<svg version="1.1" id="Layer_1" xmlns="http://www.w3.org/2000/svg" xmlns:xlink="http://www.w3.org/1999/xlink" x="0px" y="0px"
	 width="100%" viewBox="0 0 371 371" enable-background="new 0 0 371 371" xml:space="preserve">
<path fill="#010100" opacity="1.000000" stroke="none" 
	d="
M171.000000,372.000000 
	C114.019035,372.000000 57.538067,372.000000 1.028551,372.000000 
	C1.028551,248.394028 1.028551,124.788063 1.028551,1.091043 
	C124.564255,1.091043 248.128586,1.091043 371.846466,1.091043 
	C371.846466,124.666519 371.846466,248.333237 371.846466,372.000000 
	C305.121490,372.000000 238.310745,372.000000 171.000000,372.000000 
M179.346985,293.520477 
	C179.869827,293.343872 180.392670,293.167267 181.084427,292.159454 
	C181.141846,290.467682 181.199265,288.775940 182.106552,287.051636 
	C184.382965,287.084015 186.659378,287.116425 188.969360,287.991150 
	C189.066498,289.617340 189.163635,291.243500 189.260773,292.869690 
	C189.655655,292.830170 190.050552,292.790680 190.445435,292.751190 
	C190.445435,288.201111 190.445435,283.651001 190.445435,279.100922 
	C189.933792,279.107666 189.422134,279.114410 188.910492,279.121155 
	C188.910492,281.012726 188.910492,282.904327 188.070419,284.898895 
	C185.821442,284.898010 183.572464,284.897125 181.204559,284.075317 
	C181.084000,282.246490 180.963425,280.417664 180.842865,278.588867 
	C180.340591,278.604431 179.838333,278.620026 179.336060,278.635620 
	C179.336060,280.768463 179.336060,282.901276 179.165710,285.671600 
	C179.222244,286.104187 179.278778,286.536774 179.167374,287.688995 
	C179.211670,289.449249 179.255966,291.209534 179.346985,293.520477 
M249.009491,280.006470 
	C249.009491,280.006470 249.053497,279.986664 249.043518,279.351593 
	C248.706726,279.096893 248.369949,278.842194 247.761978,277.909149 
	C244.992142,277.036987 242.071671,275.199249 239.991257,280.031281 
	C239.991257,284.588745 239.991257,289.146210 239.991257,293.630249 
	C249.785919,294.457733 251.048630,293.744965 251.066498,287.067505 
	C250.822327,284.689819 254.154984,281.837708 249.574600,279.748322 
	C249.391190,279.818970 249.207779,279.889648 249.009491,280.006470 
M108.940811,213.091949 
	C161.583420,212.959076 214.231628,214.243073 266.878052,212.879837 
	C264.925934,211.894943 262.969025,211.899124 261.012115,211.894287 
	C238.349670,211.838257 215.687012,211.822052 193.024811,211.713409 
	C164.710648,211.577652 136.396835,211.365570 107.461853,211.243683 
	C107.644630,211.822922 107.827408,212.402176 108.940811,213.091949 
M190.754715,177.463654 
	C192.735138,162.731476 194.715561,147.999298 196.706299,133.190338 
	C190.163818,133.190338 184.237869,133.190338 177.919464,133.190338 
	C180.783218,153.850601 183.601074,174.179886 186.418945,194.509186 
	C187.033844,194.486862 187.648758,194.464539 188.263657,194.442230 
	C189.036163,189.072388 189.808685,183.702545 190.754715,177.463654 
M155.367142,143.041794 
	C162.157028,144.974258 168.946915,146.906738 176.678833,149.107315 
	C175.912613,143.542221 175.338852,139.374908 174.761200,135.179443 
	C161.767929,134.140350 149.592957,131.820740 138.317459,125.922829 
	C137.448975,125.468544 136.008057,126.108627 134.833191,126.240044 
	C135.127518,127.535385 134.978928,129.449631 135.786606,130.027634 
	C141.961823,134.446808 148.323318,138.605682 155.367142,143.041794 
M239.313583,129.954376 
	C239.426620,128.617615 239.539658,127.280869 239.652710,125.944115 
	C238.305313,126.047935 236.886688,125.914444 235.622040,126.293999 
	C227.240158,128.809692 219.032715,132.146942 210.495590,133.843781 
	C200.003525,135.929184 199.882019,135.349274 198.398483,145.791702 
	C198.312912,146.393967 198.466385,147.030182 198.549835,148.256348 
	C213.963409,146.180420 227.808395,141.594498 239.313583,129.954376 
M194.899490,124.369926 
	C195.570480,123.434677 196.386948,122.570831 196.887115,121.551743 
	C198.967270,117.313408 198.089737,112.450729 194.661911,109.284958 
	C191.062469,105.960701 186.822876,105.919327 182.624115,107.632126 
	C178.481033,109.322212 176.263504,114.095337 177.047867,118.775917 
	C178.392242,126.798019 188.375488,130.483475 194.899490,124.369926 
M229.499985,219.200607 
	C244.112854,219.200607 258.725739,219.200607 273.338593,219.200607 
	C273.327728,218.705856 273.316864,218.211090 273.306000,217.716339 
	C215.965012,217.716339 158.624023,217.716339 101.283028,217.716339 
	C101.282654,218.211151 101.282288,218.705978 101.281914,219.200790 
	C143.687927,219.200790 186.093948,219.200790 229.499985,219.200607 
M173.210083,207.997375 
	C175.300293,207.664139 177.867294,207.988098 179.395081,206.879639 
	C184.914673,202.875107 189.882935,203.164948 195.450150,206.902084 
	C199.432053,209.575058 202.987793,208.423508 205.251053,205.095215 
	C203.296814,202.535934 201.814621,199.575241 199.439224,197.830765 
	C197.764481,196.600830 194.257294,195.970596 192.654724,196.915421 
	C188.808014,199.183365 185.857269,199.170380 182.067078,196.840164 
	C180.533615,195.897385 177.067764,196.283951 175.594070,197.460022 
	C173.041229,199.497284 171.355316,202.620865 169.171417,205.463715 
	C169.462158,205.798431 169.814774,206.376160 170.320236,206.743668 
	C170.980270,207.223557 171.761322,207.537018 173.210083,207.997375 
M248.460297,261.755310 
	C246.852234,261.145508 245.244156,260.535706 242.981888,259.677826 
	C245.123184,257.943054 246.352814,257.102966 247.396729,256.074341 
	C252.049438,251.489929 252.085236,243.484955 247.529266,238.970520 
	C243.076477,234.558304 234.700500,234.658798 230.339172,239.176743 
	C225.889542,243.786133 225.768051,252.369186 230.871338,256.194397 
	C235.294189,259.509583 240.493988,261.846008 245.520462,264.261017 
	C246.931091,264.938751 250.138336,266.269897 248.460297,261.755310 
M135.617859,164.313568 
	C133.035034,164.313568 130.452194,164.313568 127.773537,164.313568 
	C127.288376,170.028061 129.109375,173.832336 133.531631,176.168259 
	C137.733154,178.387558 141.989197,178.078094 145.709045,175.189194 
	C149.137146,172.526901 151.024490,169.014893 149.762955,164.313583 
	C145.209610,164.313583 140.895279,164.313583 135.617859,164.313568 
M228.668732,174.913849 
	C232.969208,178.179993 237.517654,178.662140 242.100098,175.707352 
	C246.049088,173.161011 247.899872,169.537567 246.878693,164.655884 
	C239.315353,164.655884 231.964752,164.655884 223.043961,164.655884 
	C225.054123,168.541138 226.579178,171.488785 228.668732,174.913849 
M140.895584,254.898499 
	C140.895584,252.986893 140.895584,251.075272 140.895584,249.189453 
	C145.090149,249.189453 148.537979,249.189453 151.953629,249.189453 
	C152.889160,258.320953 152.889160,258.320953 155.686691,258.636139 
	C155.686691,251.952103 155.744186,245.306839 155.618195,238.665054 
	C155.601334,237.775696 154.657074,236.903915 154.142273,236.023987 
	C153.533463,236.982361 152.520432,237.892319 152.398621,238.909058 
	C152.131516,241.138626 152.315842,243.422272 152.315842,245.488586 
	C148.117355,245.488586 144.683105,245.488586 140.902115,245.488586 
	C140.902115,242.997406 141.053146,240.828888 140.832535,238.698837 
	C140.735672,237.763489 139.881424,236.906586 139.371094,236.014069 
	C138.747299,236.948639 137.612320,237.867859 137.583694,238.820312 
	C137.413605,244.479996 137.425919,250.149139 137.564880,255.810516 
	C137.590973,256.873566 138.466354,257.915802 138.949829,258.967651 
	C139.598602,257.902100 140.247391,256.836517 140.895584,254.898499 
M112.401840,245.087585 
	C115.326607,246.521927 118.383293,247.746552 121.125336,249.471375 
	C122.701576,250.462875 123.768059,252.264755 125.064011,253.701828 
	C123.283676,254.562332 121.495956,256.102905 119.725166,256.083710 
	C118.097130,256.066071 116.498749,254.349243 114.865242,253.419754 
	C113.852486,252.843475 112.798615,252.339447 111.057640,251.437439 
	C113.282051,258.919312 120.682678,261.590057 125.975853,257.831116 
	C129.528046,255.308533 129.320999,250.081696 125.367050,247.927765 
	C123.214027,246.754913 120.576889,246.472870 118.418533,245.306931 
	C117.022392,244.552734 116.097397,242.926346 114.961281,241.690796 
	C116.491394,240.731369 118.004189,239.046875 119.556328,239.009796 
	C121.216324,238.970169 122.930832,240.450912 124.587822,241.331497 
	C125.592087,241.865189 126.532387,242.519257 128.234711,243.573303 
	C126.627312,236.977493 122.932404,234.794418 117.154961,235.982040 
	C112.716591,236.894424 111.283157,239.277161 112.401840,245.087585 
M172.961548,236.344971 
	C169.768250,243.688950 166.574951,251.032928 162.821686,259.664734 
	C168.022278,258.205048 168.985825,253.459534 174.192963,253.376526 
	C179.450104,253.292694 180.209885,258.423096 185.101685,259.320099 
	C181.823761,251.334763 178.995102,244.320923 176.010056,237.374298 
	C175.730911,236.724701 174.463379,236.499817 172.961548,236.344971 
M143.194290,282.864288 
	C143.443466,281.430542 143.692657,279.996765 143.941833,278.562988 
	C143.440598,278.439026 142.939362,278.315033 142.438126,278.191040 
	C141.171326,281.452209 139.904526,284.713409 138.375259,288.650208 
	C136.490295,284.673157 134.891586,281.300049 133.292862,277.926941 
	C132.832886,278.002716 132.372910,278.078491 131.912933,278.154266 
	C130.560532,281.452637 129.208130,284.751007 127.530716,288.842072 
	C125.780113,284.651062 124.398865,281.344330 123.017624,278.037598 
	C122.428337,278.277283 121.839058,278.516998 121.249771,278.756714 
	C122.947258,283.931854 124.644737,289.106995 126.342216,294.282135 
	C126.873970,294.221039 127.405724,294.159912 127.937477,294.098816 
	C129.464264,290.869629 130.991058,287.640472 132.925827,283.548401 
	C134.909882,287.901764 136.355026,291.072693 137.800186,294.243591 
	C138.277954,294.214935 138.755722,294.186279 139.233490,294.157593 
	C140.477432,290.642334 141.721375,287.127075 143.194290,282.864288 
M196.010544,256.113953 
	C196.010544,254.012756 196.010544,251.911575 196.010544,249.884720 
	C204.231125,249.008972 204.231125,249.008972 204.938110,246.643280 
	C202.051163,246.643280 199.273819,246.643280 196.380264,246.643280 
	C196.380264,243.874756 196.380264,241.508499 196.380264,238.684113 
	C199.809082,238.684113 202.870743,238.684113 206.175583,238.684113 
	C204.423065,235.664124 201.309174,235.239548 192.882065,236.551788 
	C192.882065,243.284637 192.840057,250.082184 192.946701,256.877411 
	C192.957443,257.561554 193.867661,258.231567 194.360428,258.908173 
	C194.907654,258.274200 195.454880,257.640228 196.010544,256.113953 
M226.851761,288.312256 
	C227.701996,287.254089 228.552231,286.195953 229.913254,284.502075 
	C230.274780,288.308563 230.539413,291.094666 230.804031,293.880798 
	C231.292236,293.853577 231.780441,293.826355 232.268646,293.799133 
	C232.268646,288.698364 232.268646,283.597595 232.268646,276.854309 
	C229.258469,280.736938 227.141846,283.467010 224.805374,286.480652 
	C222.432983,283.426361 220.313812,280.698090 218.194626,277.969788 
	C217.885422,278.156281 217.576202,278.342743 217.266998,278.529205 
	C217.266998,283.606750 217.266998,288.684296 217.266998,293.761841 
	C217.750580,293.789307 218.234177,293.816772 218.717758,293.844238 
	C218.922241,290.779388 219.126740,287.714508 219.394730,283.697754 
	C220.949142,285.824738 221.693283,287.375977 222.909042,288.319611 
	C223.722900,288.951294 225.206528,288.720093 226.851761,288.312256 
M106.443275,284.870575 
	C105.379227,287.764252 104.315170,290.657928 103.251114,293.551575 
	C109.336494,289.541931 110.200920,289.539093 118.157280,294.650635 
	C115.545891,288.213928 113.437874,283.017944 111.329849,277.821960 
	C110.734367,277.905975 110.138878,277.990021 109.543396,278.074036 
	C108.615662,280.108978 107.687935,282.143951 106.443275,284.870575 
M210.090607,293.925018 
	C210.968124,287.605316 206.835892,283.209381 204.149612,278.032501 
	C201.262360,282.616028 198.138458,286.840729 198.323242,292.947418 
	C203.207062,289.685028 206.478500,290.078796 210.090607,293.925018 
M161.861511,290.613495 
	C159.498566,288.093079 158.927963,285.115204 161.160507,282.514679 
	C165.027008,278.010895 168.649368,281.851593 172.481903,284.029541 
	C170.920563,279.135559 167.532211,277.149628 163.360458,278.157532 
	C159.415100,279.110779 156.640549,283.207001 157.226608,287.213348 
	C157.849045,291.468475 161.351440,294.462341 165.506821,294.291412 
	C169.575912,294.123993 171.850693,292.099243 172.014969,289.501495 
	C169.004654,289.993286 165.759796,290.523407 161.861511,290.613495 
M275.752014,278.209869 
	C271.904907,283.204590 274.825378,288.522491 274.730011,293.775787 
	C275.600677,293.412720 275.956848,292.960693 276.213776,292.457947 
	C276.823120,291.265503 277.385406,290.049042 277.966675,288.842255 
	C279.079071,289.683655 280.238708,290.470520 281.290131,291.382233 
	C282.277893,292.238770 283.151276,293.227142 284.075012,294.157501 
	C284.385803,293.914459 284.696594,293.671417 285.007385,293.428375 
	C284.290436,291.872009 283.573486,290.315643 282.862152,288.754181 
	C286.680298,283.390106 286.033051,279.455872 281.082916,278.392670 
	C279.644562,278.083679 278.110352,278.220825 275.752014,278.209869 
M239.174423,143.151398 
	C239.174423,148.911438 239.174423,154.671478 239.174423,160.489609 
	C241.194168,160.489609 243.249496,160.489609 246.199890,160.489609 
	C244.143890,153.205002 242.253265,146.506287 240.362625,139.807571 
	C239.959595,139.893173 239.556580,139.978760 239.153564,140.064362 
	C239.153564,140.823807 239.153564,141.583267 239.174423,143.151398 
M130.029602,155.311127 
	C129.760101,157.012955 129.490616,158.714798 129.206039,160.511810 
	C131.847168,160.511810 133.881226,160.511810 136.186768,160.511810 
	C135.733963,154.183441 135.305695,148.197968 134.877426,142.212509 
	C134.497406,142.140213 134.117371,142.067917 133.737335,141.995605 
	C132.548416,146.163391 131.359497,150.331177 130.029602,155.311127 
M257.856415,279.364471 
	C257.856415,284.114136 257.856415,288.863770 257.856415,293.404297 
	C261.274414,293.404297 264.316498,293.404297 267.358582,293.404297 
	C260.242249,290.535858 260.242249,290.535858 260.705505,287.341797 
	C262.655212,287.082550 264.626953,286.820374 266.598694,286.558197 
	C265.776337,285.370453 264.859161,285.279694 264.088898,284.894836 
	C262.725555,284.213684 261.451538,283.353699 260.140167,282.568512 
	C261.391388,281.892822 262.602539,281.121857 263.907013,280.572540 
	C264.890778,280.158203 265.993988,280.027496 267.044006,279.770508 
	C266.970001,279.237457 266.895966,278.704407 266.821930,278.171356 
	C263.992950,278.333374 261.163971,278.495361 257.856415,279.364471 
M218.152908,240.046570 
	C217.621872,238.731018 217.090836,237.415451 216.559799,236.099899 
	C216.066788,237.290085 215.183563,238.468781 215.148132,239.672440 
	C214.992126,244.971603 214.986572,250.280960 215.155930,255.579300 
	C215.192078,256.710297 216.185501,257.810669 216.737915,258.925140 
	C217.209534,257.738647 218.048950,256.564117 218.088104,255.363525 
	C218.244751,250.562119 218.152786,245.752579 218.152908,240.046570 
M233.031067,157.951355 
	C232.374802,153.252747 231.718536,148.554138 231.062271,143.855515 
	C230.642975,143.791565 230.223663,143.727600 229.804367,143.663651 
	C228.788681,149.209183 227.772995,154.754715 226.757309,160.300232 
	C227.374695,160.743744 227.992065,161.187241 228.609451,161.630753 
	C230.136383,160.659576 231.663315,159.688416 233.031067,157.951355 
M142.969711,148.870682 
	C142.539108,152.741974 142.108521,156.613251 141.673248,160.526642 
	C143.552795,160.526642 145.291397,160.526642 147.930237,160.526642 
	C147.018570,155.810989 146.234283,151.516724 145.303879,147.254349 
	C145.192596,146.744583 144.286453,146.408325 143.748734,145.991638 
	C143.491898,146.693130 143.235046,147.394638 142.969711,148.870682 
M89.238510,283.729462 
	C89.238510,287.003906 89.238510,290.278351 89.238510,293.528442 
	C93.015800,293.528442 96.107529,293.528442 99.199257,293.528442 
	C99.251999,293.088470 99.304749,292.648499 99.357498,292.208557 
	C97.093185,291.856812 94.828873,291.505066 92.276855,291.108643 
	C92.034737,286.749084 91.799950,282.521484 91.565155,278.293915 
	C90.955780,278.291870 90.346405,278.289825 89.737022,278.287811 
	C89.571014,279.799683 89.405006,281.311584 89.238510,283.729462 
M143.464066,143.312134 
	C143.524750,143.255493 143.585419,143.198868 143.464066,143.312134 
z"/>
<path fill="#F5F5F5" opacity="1.000000" stroke="none" 
	d="
M190.667953,177.898178 
	C189.808685,183.702545 189.036163,189.072388 188.263657,194.442230 
	C187.648758,194.464539 187.033844,194.486862 186.418945,194.509186 
	C183.601074,174.179886 180.783218,153.850601 177.919464,133.190338 
	C184.237869,133.190338 190.163818,133.190338 196.706299,133.190338 
	C194.715561,147.999298 192.735138,162.731476 190.667953,177.898178 
z"/>
<path fill="#F4F4F4" opacity="1.000000" stroke="none" 
	d="
M154.997009,142.943634 
	C148.323318,138.605682 141.961823,134.446808 135.786606,130.027634 
	C134.978928,129.449631 135.127518,127.535385 134.833191,126.240036 
	C136.008057,126.108627 137.448975,125.468544 138.317459,125.922829 
	C149.592957,131.820740 161.767929,134.140350 174.761200,135.179443 
	C175.338852,139.374908 175.912613,143.542221 176.678833,149.107315 
	C168.946915,146.906738 162.157028,144.974258 154.997009,142.943634 
z"/>
<path fill="#BA8A2B" opacity="1.000000" stroke="none" 
	d="
M239.076416,130.200897 
	C227.808395,141.594498 213.963409,146.180420 198.549835,148.256348 
	C198.466385,147.030182 198.312912,146.393967 198.398483,145.791702 
	C199.882019,135.349274 200.003525,135.929184 210.495590,133.843781 
	C219.032715,132.146942 227.240158,128.809692 235.622040,126.293999 
	C236.886688,125.914444 238.305313,126.047935 239.652710,125.944115 
	C239.539658,127.280869 239.426620,128.617615 239.076416,130.200897 
z"/>
<path fill="#BC8B2C" opacity="1.000000" stroke="none" 
	d="
M194.629883,124.629959 
	C188.375488,130.483475 178.392242,126.798019 177.047867,118.775917 
	C176.263504,114.095337 178.481033,109.322212 182.624115,107.632126 
	C186.822876,105.919327 191.062469,105.960701 194.661911,109.284958 
	C198.089737,112.450729 198.967270,117.313408 196.887115,121.551743 
	C196.386948,122.570831 195.570480,123.434677 194.629883,124.629959 
z"/>
<path fill="#A27825" opacity="1.000000" stroke="none" 
	d="
M228.999969,219.200699 
	C186.093948,219.200790 143.687927,219.200790 101.281914,219.200790 
	C101.282288,218.705978 101.282654,218.211151 101.283028,217.716339 
	C158.624023,217.716339 215.965012,217.716339 273.306000,217.716339 
	C273.316864,218.211090 273.327728,218.705856 273.338593,219.200607 
	C258.725739,219.200607 244.112854,219.200607 228.999969,219.200699 
z"/>
<path fill="#F1F1F1" opacity="1.000000" stroke="none" 
	d="
M172.850189,207.959717 
	C171.761322,207.537018 170.980270,207.223557 170.320236,206.743668 
	C169.814774,206.376160 169.462158,205.798431 169.171417,205.463715 
	C171.355316,202.620865 173.041229,199.497284 175.594070,197.460022 
	C177.067764,196.283951 180.533615,195.897385 182.067078,196.840164 
	C185.857269,199.170380 188.808014,199.183365 192.654724,196.915421 
	C194.257294,195.970596 197.764481,196.600830 199.439224,197.830765 
	C201.814621,199.575241 203.296814,202.535934 205.251053,205.095215 
	C202.987793,208.423508 199.432053,209.575058 195.450150,206.902084 
	C189.882935,203.164948 184.914673,202.875107 179.395081,206.879639 
	C177.867294,207.988098 175.300293,207.664139 172.850189,207.959717 
z"/>
<path fill="#B5862A" opacity="1.000000" stroke="none" 
	d="
M108.082878,211.186447 
	C136.396835,211.365570 164.710648,211.577652 193.024811,211.713409 
	C215.687012,211.822052 238.349670,211.838257 261.012115,211.894287 
	C262.969025,211.899124 264.925934,211.894943 266.878052,212.879837 
	C214.231628,214.243073 161.583420,212.959076 108.472824,212.737015 
	C108.030846,211.983536 108.056862,211.584991 108.082878,211.186447 
z"/>
<path fill="#DCDCDC" opacity="1.000000" stroke="none" 
	d="
M248.831482,261.887390 
	C250.138336,266.269897 246.931091,264.938751 245.520462,264.261017 
	C240.493988,261.846008 235.294189,259.509583 230.871338,256.194397 
	C225.768051,252.369186 225.889542,243.786133 230.339172,239.176743 
	C234.700500,234.658798 243.076477,234.558304 247.529266,238.970520 
	C252.085236,243.484955 252.049438,251.489929 247.396729,256.074341 
	C246.352814,257.102966 245.123184,257.943054 242.981888,259.677826 
	C245.244156,260.535706 246.852234,261.145508 248.831482,261.887390 
M232.828033,241.219345 
	C232.165802,242.351929 231.301010,243.414169 230.878799,244.630112 
	C229.538834,248.489090 230.195480,252.519730 233.691040,254.288635 
	C236.406036,255.662537 240.483307,255.888046 243.402756,254.933975 
	C247.285263,253.665161 248.104736,249.636017 247.413635,245.717743 
	C246.272263,239.246582 240.218948,237.116943 232.828033,241.219345 
z"/>
<path fill="#EEEEEE" opacity="1.000000" stroke="none" 
	d="
M136.099396,164.313568 
	C140.895279,164.313583 145.209610,164.313583 149.762955,164.313583 
	C151.024490,169.014893 149.137146,172.526901 145.709045,175.189194 
	C141.989197,178.078094 137.733154,178.387558 133.531631,176.168259 
	C129.109375,173.832336 127.288376,170.028061 127.773537,164.313568 
	C130.452194,164.313568 133.035034,164.313568 136.099396,164.313568 
z"/>
<path fill="#B5862A" opacity="1.000000" stroke="none" 
	d="
M228.386475,174.675140 
	C226.579178,171.488785 225.054123,168.541138 223.043961,164.655884 
	C231.964752,164.655884 239.315353,164.655884 246.878693,164.655884 
	C247.899872,169.537567 246.049088,173.161011 242.100098,175.707352 
	C237.517654,178.662140 232.969208,178.179993 228.386475,174.675140 
z"/>
<path fill="#CCCCCC" opacity="1.000000" stroke="none" 
	d="
M140.895874,255.334717 
	C140.247391,256.836517 139.598602,257.902100 138.949829,258.967651 
	C138.466354,257.915802 137.590973,256.873566 137.564880,255.810516 
	C137.425919,250.149139 137.413605,244.479996 137.583694,238.820312 
	C137.612320,237.867859 138.747299,236.948639 139.371094,236.014069 
	C139.881424,236.906586 140.735672,237.763489 140.832535,238.698837 
	C141.053146,240.828888 140.902115,242.997406 140.902115,245.488586 
	C144.683105,245.488586 148.117355,245.488586 152.315842,245.488586 
	C152.315842,243.422272 152.131516,241.138626 152.398621,238.909058 
	C152.520432,237.892319 153.533463,236.982361 154.142273,236.023987 
	C154.657074,236.903915 155.601334,237.775696 155.618195,238.665054 
	C155.744186,245.306839 155.686691,251.952103 155.686691,258.636139 
	C152.889160,258.320953 152.889160,258.320953 151.953629,249.189453 
	C148.537979,249.189453 145.090149,249.189453 140.895584,249.189453 
	C140.895584,251.075272 140.895584,252.986893 140.895874,255.334717 
z"/>
<path fill="#DCDCDC" opacity="1.000000" stroke="none" 
	d="
M112.232422,244.766907 
	C111.283157,239.277161 112.716591,236.894424 117.154961,235.982040 
	C122.932404,234.794418 126.627312,236.977493 128.234711,243.573303 
	C126.532387,242.519257 125.592087,241.865189 124.587822,241.331497 
	C122.930832,240.450912 121.216324,238.970169 119.556328,239.009796 
	C118.004189,239.046875 116.491394,240.731369 114.961281,241.690796 
	C116.097397,242.926346 117.022392,244.552734 118.418533,245.306931 
	C120.576889,246.472870 123.214027,246.754913 125.367050,247.927765 
	C129.320999,250.081696 129.528046,255.308533 125.975853,257.831116 
	C120.682678,261.590057 113.282051,258.919312 111.057640,251.437439 
	C112.798615,252.339447 113.852486,252.843475 114.865242,253.419754 
	C116.498749,254.349243 118.097130,256.066071 119.725166,256.083710 
	C121.495956,256.102905 123.283676,254.562332 125.064011,253.701828 
	C123.768059,252.264755 122.701576,250.462875 121.125336,249.471375 
	C118.383293,247.746552 115.326607,246.521927 112.232422,244.766907 
z"/>
<path fill="#DCDCDC" opacity="1.000000" stroke="none" 
	d="
M173.308136,236.211365 
	C174.463379,236.499817 175.730911,236.724701 176.010056,237.374298 
	C178.995102,244.320923 181.823761,251.334763 185.101685,259.320099 
	C180.209885,258.423096 179.450104,253.292694 174.192963,253.376526 
	C168.985825,253.459534 168.022278,258.205048 162.821686,259.664734 
	C166.574951,251.032928 169.768250,243.688950 173.308136,236.211365 
M175.903946,244.667053 
	C175.436264,243.701538 174.968597,242.736023 174.021500,240.780701 
	C172.424103,244.663574 171.225189,247.577835 169.918930,250.753067 
	C172.959213,250.753067 175.370651,250.753067 178.223389,250.753067 
	C177.445526,248.742508 176.799500,247.072662 175.903946,244.667053 
z"/>
<path fill="#967023" opacity="1.000000" stroke="none" 
	d="
M143.079803,283.238037 
	C141.721375,287.127075 140.477432,290.642334 139.233490,294.157593 
	C138.755722,294.186279 138.277954,294.214935 137.800186,294.243591 
	C136.355026,291.072693 134.909882,287.901764 132.925827,283.548401 
	C130.991058,287.640472 129.464264,290.869629 127.937477,294.098816 
	C127.405724,294.159912 126.873970,294.221039 126.342216,294.282135 
	C124.644737,289.106995 122.947258,283.931854 121.249771,278.756714 
	C121.839058,278.516998 122.428337,278.277283 123.017624,278.037598 
	C124.398865,281.344330 125.780113,284.651062 127.530716,288.842072 
	C129.208130,284.751007 130.560532,281.452637 131.912933,278.154266 
	C132.372910,278.078491 132.832886,278.002716 133.292862,277.926941 
	C134.891586,281.300049 136.490295,284.673157 138.375259,288.650208 
	C139.904526,284.713409 141.171326,281.452209 142.438126,278.191040 
	C142.939362,278.315033 143.440598,278.439026 143.941833,278.562988 
	C143.692657,279.996765 143.443466,281.430542 143.079803,283.238037 
z"/>
<path fill="#E1E1E1" opacity="1.000000" stroke="none" 
	d="
M196.006317,256.560120 
	C195.454880,257.640228 194.907654,258.274200 194.360443,258.908173 
	C193.867661,258.231567 192.957443,257.561554 192.946701,256.877411 
	C192.840057,250.082184 192.882065,243.284637 192.882065,236.551788 
	C201.309174,235.239548 204.423065,235.664124 206.175583,238.684113 
	C202.870743,238.684113 199.809082,238.684113 196.380264,238.684113 
	C196.380264,241.508499 196.380264,243.874756 196.380264,246.643280 
	C199.273819,246.643280 202.051163,246.643280 204.938110,246.643280 
	C204.231125,249.008972 204.231125,249.008972 196.010544,249.884720 
	C196.010544,251.911575 196.010544,254.012756 196.006317,256.560120 
z"/>
<path fill="#967023" opacity="1.000000" stroke="none" 
	d="
M226.621109,288.593628 
	C225.206528,288.720093 223.722900,288.951294 222.909042,288.319611 
	C221.693283,287.375977 220.949142,285.824738 219.394730,283.697754 
	C219.126740,287.714508 218.922241,290.779388 218.717758,293.844238 
	C218.234177,293.816772 217.750580,293.789307 217.266998,293.761841 
	C217.266998,288.684296 217.266998,283.606750 217.266998,278.529205 
	C217.576202,278.342743 217.885422,278.156281 218.194626,277.969788 
	C220.313812,280.698090 222.432983,283.426361 224.805374,286.480652 
	C227.141846,283.467010 229.258469,280.736938 232.268646,276.854309 
	C232.268646,283.597595 232.268646,288.698364 232.268646,293.799133 
	C231.780441,293.826355 231.292236,293.853577 230.804031,293.880798 
	C230.539413,291.094666 230.274780,288.308563 229.913254,284.502075 
	C228.552231,286.195953 227.701996,287.254089 226.621109,288.593628 
z"/>
<path fill="#936D22" opacity="1.000000" stroke="none" 
	d="
M106.601738,284.524719 
	C107.687935,282.143951 108.615662,280.108978 109.543396,278.074036 
	C110.138878,277.990021 110.734367,277.905975 111.329849,277.821960 
	C113.437874,283.017944 115.545891,288.213928 118.157280,294.650635 
	C110.200920,289.539093 109.336494,289.541931 103.251114,293.551575 
	C104.315170,290.657928 105.379227,287.764252 106.601738,284.524719 
z"/>
<path fill="#8B6720" opacity="1.000000" stroke="none" 
	d="
M209.746078,293.834137 
	C206.478500,290.078796 203.207062,289.685028 198.323242,292.947418 
	C198.138458,286.840729 201.262360,282.616028 204.149612,278.032501 
	C206.835892,283.209381 210.968124,287.605316 209.746078,293.834137 
z"/>
<path fill="#936D22" opacity="1.000000" stroke="none" 
	d="
M162.188217,290.833496 
	C165.759796,290.523407 169.004654,289.993286 172.014969,289.501495 
	C171.850693,292.099243 169.575912,294.123993 165.506821,294.291412 
	C161.351440,294.462341 157.849045,291.468475 157.226608,287.213348 
	C156.640549,283.207001 159.415100,279.110779 163.360458,278.157532 
	C167.532211,277.149628 170.920563,279.135559 172.481903,284.029541 
	C168.649368,281.851593 165.027008,278.010895 161.160507,282.514679 
	C158.927963,285.115204 159.498566,288.093079 162.188217,290.833496 
z"/>
<path fill="#9D7524" opacity="1.000000" stroke="none" 
	d="
M276.186035,278.181671 
	C278.110352,278.220825 279.644562,278.083679 281.082916,278.392670 
	C286.033051,279.455872 286.680298,283.390106 282.859344,288.756714 
	C283.573486,290.315643 284.290436,291.872009 285.007385,293.428375 
	C284.696594,293.671417 284.385803,293.914459 284.075012,294.157501 
	C283.151276,293.227142 282.277893,292.238770 281.290131,291.382233 
	C280.238708,290.470520 279.079071,289.683655 277.966675,288.842255 
	C277.385406,290.049042 276.823120,291.265503 276.213776,292.457947 
	C275.956848,292.960693 275.600677,293.412720 274.730011,293.775787 
	C274.825378,288.522491 271.904907,283.204590 276.186035,278.181671 
M278.482880,280.284821 
	C274.350006,281.152008 276.516266,283.771149 276.690674,287.456970 
	C279.348114,285.915649 281.177032,284.854858 283.005951,283.794098 
	C281.764282,282.634888 280.522583,281.475708 278.482880,280.284821 
z"/>
<path fill="#A77C27" opacity="1.000000" stroke="none" 
	d="
M239.164001,142.747055 
	C239.153564,141.583267 239.153564,140.823807 239.153564,140.064362 
	C239.556580,139.978760 239.959595,139.893173 240.362625,139.807571 
	C242.253265,146.506287 244.143890,153.205002 246.199890,160.489609 
	C243.249496,160.489609 241.194168,160.489609 239.174423,160.489609 
	C239.174423,154.671478 239.174423,148.911438 239.164001,142.747055 
z"/>
<path fill="#E1E1E1" opacity="1.000000" stroke="none" 
	d="
M130.100082,154.905045 
	C131.359497,150.331177 132.548416,146.163391 133.737335,141.995605 
	C134.117371,142.067917 134.497406,142.140213 134.877426,142.212509 
	C135.305695,148.197968 135.733963,154.183441 136.186768,160.511810 
	C133.881226,160.511810 131.847168,160.511810 129.206039,160.511810 
	C129.490616,158.714798 129.760101,157.012955 130.100082,154.905045 
z"/>
<path fill="#9D7524" opacity="1.000000" stroke="none" 
	d="
M258.095703,279.010925 
	C261.163971,278.495361 263.992950,278.333374 266.821930,278.171356 
	C266.895966,278.704407 266.970001,279.237457 267.044006,279.770508 
	C265.993988,280.027496 264.890778,280.158203 263.907013,280.572540 
	C262.602539,281.121857 261.391388,281.892822 260.140167,282.568542 
	C261.451538,283.353699 262.725555,284.213684 264.088898,284.894836 
	C264.859161,285.279694 265.776337,285.370453 266.598694,286.558197 
	C264.626953,286.820374 262.655212,287.082550 260.705505,287.341797 
	C260.242249,290.535858 260.242249,290.535858 267.358582,293.404297 
	C264.316498,293.404297 261.274414,293.404297 257.856415,293.404297 
	C257.856415,288.863770 257.856415,284.114136 258.095703,279.010925 
z"/>
<path fill="#E1E1E1" opacity="1.000000" stroke="none" 
	d="
M218.152863,240.496307 
	C218.152786,245.752579 218.244751,250.562119 218.088104,255.363525 
	C218.048950,256.564117 217.209534,257.738647 216.737915,258.925140 
	C216.185501,257.810669 215.192078,256.710297 215.155930,255.579300 
	C214.986572,250.280960 214.992126,244.971603 215.148132,239.672440 
	C215.183563,238.468781 216.066788,237.290085 216.559799,236.099899 
	C217.090836,237.415451 217.621872,238.731018 218.152863,240.496307 
z"/>
<path fill="#A77C27" opacity="1.000000" stroke="none" 
	d="
M233.110657,158.334305 
	C231.663315,159.688416 230.136383,160.659576 228.609451,161.630753 
	C227.992065,161.187241 227.374695,160.743744 226.757309,160.300232 
	C227.772995,154.754715 228.788681,149.209183 229.804367,143.663651 
	C230.223663,143.727600 230.642975,143.791565 231.062271,143.855515 
	C231.718536,148.554138 232.374802,153.252747 233.110657,158.334305 
z"/>
<path fill="#E8E8E8" opacity="1.000000" stroke="none" 
	d="
M142.973953,148.483414 
	C143.235046,147.394638 143.491898,146.693130 143.748749,145.991638 
	C144.286453,146.408325 145.192596,146.744583 145.303879,147.254349 
	C146.234283,151.516724 147.018570,155.810989 147.930237,160.526642 
	C145.291397,160.526642 143.552795,160.526642 141.673248,160.526642 
	C142.108521,156.613251 142.539108,152.741974 142.973953,148.483414 
z"/>
<path fill="#8B6720" opacity="1.000000" stroke="none" 
	d="
M89.238754,283.276489 
	C89.405006,281.311584 89.571014,279.799683 89.737022,278.287811 
	C90.346405,278.289825 90.955780,278.291870 91.565155,278.293915 
	C91.799950,282.521484 92.034737,286.749084 92.276855,291.108643 
	C94.828873,291.505066 97.093185,291.856812 99.357498,292.208557 
	C99.304749,292.648499 99.251999,293.088470 99.199257,293.528442 
	C96.107529,293.528442 93.015800,293.528442 89.238510,293.528442 
	C89.238510,290.278351 89.238510,287.003906 89.238754,283.276489 
z"/>
<path fill="#B5862A" opacity="1.000000" stroke="none" 
	d="
M248.033157,278.587524 
	C248.369949,278.842194 248.706726,279.096893 248.665863,279.918335 
	C246.364182,280.485107 244.440140,280.485107 241.332458,280.485107 
	C242.355713,282.760101 243.096329,284.406677 243.685318,286.388062 
	C242.946655,288.258392 242.359604,289.793915 241.577148,291.840546 
	C245.675735,291.892090 249.201736,293.185303 249.364044,287.957001 
	C250.153549,287.879272 250.607010,287.856567 251.060471,287.833832 
	C251.048630,293.744965 249.785919,294.457733 239.991257,293.630249 
	C239.991257,289.146210 239.991257,284.588745 240.461243,279.524323 
	C243.298538,278.874084 245.665848,278.730804 248.033157,278.587524 
z"/>
<path fill="#120D04" opacity="1.000000" stroke="none" 
	d="
M251.063477,287.450684 
	C250.607010,287.856567 250.153549,287.879272 249.011078,287.894928 
	C246.827042,287.276306 245.331985,286.664795 243.836929,286.053284 
	C243.096329,284.406677 242.355713,282.760101 241.332458,280.485107 
	C244.440140,280.485107 246.364182,280.485107 248.670853,280.235901 
	C249.053497,279.986664 249.009491,280.006470 248.773743,280.283295 
	C248.665482,281.984009 248.792999,283.407898 248.920517,284.831787 
	C249.321701,284.804993 249.722885,284.778198 250.124069,284.751404 
	C250.124069,283.155029 250.124069,281.558685 250.124069,279.962311 
	C254.154984,281.837708 250.822327,284.689819 251.063477,287.450684 
z"/>
<path fill="#B5862A" opacity="1.000000" stroke="none" 
	d="
M188.910492,284.795898 
	C188.910492,282.904327 188.910492,281.012726 188.910492,279.121155 
	C189.422134,279.114410 189.933792,279.107666 190.445435,279.100922 
	C190.445435,283.651001 190.445435,288.201111 190.445435,292.751190 
	C190.050552,292.790680 189.655655,292.830170 189.260773,292.869690 
	C189.163635,291.243500 189.066498,289.617340 188.964111,287.177765 
	C188.942734,285.841553 188.926605,285.318726 188.910492,284.795898 
z"/>
<path fill="#A77C27" opacity="1.000000" stroke="none" 
	d="
M188.490448,284.847412 
	C188.926605,285.318726 188.942734,285.841553 188.947327,286.756592 
	C186.659378,287.116425 184.382965,287.084015 181.201965,287.027100 
	C179.976715,286.991486 179.656021,286.980438 179.335312,286.969360 
	C179.278778,286.536774 179.222244,286.104187 179.750183,285.331848 
	C180.664246,284.960114 180.993866,284.928192 181.323486,284.896240 
	C183.572464,284.897125 185.821442,284.898010 188.490448,284.847412 
z"/>
<path fill="#120D04" opacity="1.000000" stroke="none" 
	d="
M247.897568,278.248352 
	C245.665848,278.730804 243.298538,278.874084 240.489822,279.064941 
	C242.071671,275.199249 244.992142,277.036987 247.897568,278.248352 
z"/>
<path fill="#B5862A" opacity="1.000000" stroke="none" 
	d="
M181.264023,284.485779 
	C180.993866,284.928192 180.664246,284.960114 179.835358,285.013092 
	C179.336060,282.901276 179.336060,280.768463 179.336060,278.635620 
	C179.838333,278.620026 180.340591,278.604431 180.842865,278.588867 
	C180.963425,280.417664 181.084000,282.246490 181.264023,284.485779 
z"/>
<path fill="#B5862A" opacity="1.000000" stroke="none" 
	d="
M179.251343,287.329163 
	C179.656021,286.980438 179.976715,286.991486 180.777039,287.043365 
	C181.199265,288.775940 181.141846,290.467682 180.730774,292.573425 
	C180.018158,292.981537 179.659210,292.975677 179.300262,292.969788 
	C179.255966,291.209534 179.211670,289.449249 179.251343,287.329163 
z"/>
<path fill="#B5862A" opacity="1.000000" stroke="none" 
	d="
M249.849335,279.855316 
	C250.124069,281.558685 250.124069,283.155029 250.124069,284.751404 
	C249.722885,284.778198 249.321701,284.804993 248.920517,284.831787 
	C248.792999,283.407898 248.665482,281.984009 248.781158,280.260223 
	C249.207779,279.889648 249.391190,279.818970 249.849335,279.855316 
z"/>
<path fill="#E8E8E8" opacity="1.000000" stroke="none" 
	d="
M143.555084,143.227173 
	C143.585419,143.198868 143.524750,143.255493 143.555084,143.227173 
z"/>
<path fill="#805F1E" opacity="1.000000" stroke="none" 
	d="
M107.772369,211.215057 
	C108.056862,211.584991 108.030846,211.983536 108.007507,212.681747 
	C107.827408,212.402176 107.644630,211.822922 107.772369,211.215057 
z"/>
<path fill="#A77C27" opacity="1.000000" stroke="none" 
	d="
M179.323624,293.245148 
	C179.659210,292.975677 180.018158,292.981537 180.646301,292.989014 
	C180.392670,293.167267 179.869827,293.343872 179.323624,293.245148 
z"/>
<path fill="#0A0A0A" opacity="1.000000" stroke="none" 
	d="
M233.124634,240.963058 
	C240.218948,237.116943 246.272263,239.246582 247.413635,245.717743 
	C248.104736,249.636017 247.285263,253.665161 243.402756,254.933975 
	C240.483307,255.888046 236.406036,255.662537 233.691040,254.288635 
	C230.195480,252.519730 229.538834,248.489090 230.878799,244.630112 
	C231.301010,243.414169 232.165802,242.351929 233.124634,240.963058 
z"/>
<path fill="#181818" opacity="1.000000" stroke="none" 
	d="
M176.028702,245.034927 
	C176.799500,247.072662 177.445526,248.742508 178.223389,250.753067 
	C175.370651,250.753067 172.959213,250.753067 169.918930,250.753067 
	C171.225189,247.577835 172.424103,244.663574 174.021500,240.780701 
	C174.968597,242.736023 175.436264,243.701538 176.028702,245.034927 
z"/>
<path fill="#120D04" opacity="1.000000" stroke="none" 
	d="
M278.881897,280.300659 
	C280.522583,281.475708 281.764282,282.634888 283.005951,283.794098 
	C281.177032,284.854858 279.348114,285.915649 276.690674,287.456970 
	C276.516266,283.771149 274.350006,281.152008 278.881897,280.300659 
z"/>
<path fill="#0A0A0A" opacity="1.000000" stroke="none" 
	d="
M243.685318,286.388062 
	C245.331985,286.664795 246.827042,287.276306 248.675049,287.949921 
	C249.201736,293.185303 245.675735,291.892090 241.577148,291.840546 
	C242.359604,289.793915 242.946655,288.258392 243.685318,286.388062 
z"/>
</svg>